#N canvas 409 163 744 460 10;
#X obj 188 57 s rcvOSC;
#X floatatom 185 194 5 0 0 0 - - -;
#X floatatom 238 210 5 0 0 0 - - -;
#X floatatom 304 207 5 0 0 0 - - -;
#X obj 304 228 expr $f1 - 120;
#X obj 210 117 unpack 0 0 0 0;
#X floatatom 292 145 5 0 0 0 - - -;
#X obj 397 58 sendOSC;
#X msg 488 21 connect 192.168.1.255 10000;
#X floatatom 396 87 5 0 0 0 - - -;
#X floatatom 450 89 5 0 0 0 - - -;
#X msg 488 53 send /ardpulse 0;
#X msg 502 80 send /ardpulse 1;
#X msg 514 108 send /ardpulse 2;
#X msg 523 137 send /ardpulse 3;
#X obj 189 36 dumpOSC 57120;
#X obj 153 70 OSCroute /ardnunchuck /section /qrcode;
#X obj 346 143 print section;
#X obj 368 184 print qrcode;
#X obj 449 227 print other;
#X connect 3 0 4 0;
#X connect 5 0 1 0;
#X connect 5 1 2 0;
#X connect 5 2 3 0;
#X connect 5 3 6 0;
#X connect 7 0 9 0;
#X connect 7 1 10 0;
#X connect 8 0 7 0;
#X connect 11 0 7 0;
#X connect 12 0 7 0;
#X connect 13 0 7 0;
#X connect 14 0 7 0;
#X connect 15 0 0 0;
#X connect 15 0 16 0;
#X connect 16 0 5 0;
#X connect 16 1 17 0;
#X connect 16 2 18 0;
#X connect 16 3 19 0;
